<?xml version="1.0" standalone="no"?>
<!DOCTYPE svg PUBLIC "-//W3C//DTD SVG 20010904//EN"
 "http://www.w3.org/TR/2001/REC-SVG-20010904/DTD/svg10.dtd">
<svg version="1.0" xmlns="http://www.w3.org/2000/svg"
 width="512.000000pt" height="512.000000pt" viewBox="0 0 512.000000 512.000000"
 preserveAspectRatio="xMidYMid meet">
<metadata>
Created by potrace 1.11, written by Peter Selinger 2001-2013
</metadata>
<g transform="translate(0.000000,512.000000) scale(0.100000,-0.100000)"
fill="#000000" stroke="none">
<path d="M2465 5050 c-22 -5 -59 -10 -83 -14 -127 -17 -394 -102 -574 -181
-293 -130 -627 -337 -807 -499 -210 -190 -351 -363 -454 -556 -81 -153 -157
-366 -193 -545 -20 -99 -34 -175 -38 -200 -2 -16 -7 -48 -10 -70 -24 -160 -31
-290 -31 -570 0 -238 8 -453 19 -511 2 -10 7 -53 11 -94 4 -41 9 -82 10 -91 2
-9 6 -40 10 -70 3 -30 13 -94 21 -144 8 -49 17 -103 20 -120 4 -28 2 -31 -43
-45 l-48 -15 1 -70 c2 -139 15 -279 27 -287 38 -22 147 -129 166 -161 12 -21
47 -111 77 -200 128 -377 227 -468 564 -522 19 -3 55 -8 80 -12 88 -14 430 -7
527 11 112 20 231 58 289 92 126 74 230 238 309 489 16 49 44 120 62 157 18
38 33 72 33 76 1 18 48 62 80 75 64 26 194 11 227 -26 19 -21 93 -188 93 -210
0 -22 93 -241 127 -300 105 -178 193 -252 353 -296 220 -61 581 -56 851 13
277 70 382 194 475 559 38 150 65 200 154 287 l77 75 2 172 2 171 -31 7 -31 7
5 91 c7 106 13 219 21 362 3 55 8 150 11 210 7 142 8 769 0 860 -3 39 -8 108
-11 155 -4 47 -8 96 -10 110 -2 14 -6 43 -9 65 -3 22 -8 60 -11 85 -13 96 -68
298 -100 365 -70 147 -172 206 -360 206 -90 1 -166 -22 -232 -70 l-40 -29 0
67 c-1 66 -11 179 -17 190 -2 3 -6 29 -10 58 -19 160 -140 338 -333 492 -249
198 -571 343 -868 392 -76 13 -307 18 -360 9z m410 -1223 c22 -3 69 -9 105
-13 36 -3 74 -8 85 -10 23 -5 118 -21 156 -28 14 -2 69 -16 122 -30 418 -111
724 -323 977 -676 86 -120 132 -217 155 -330 8 -36 18 -100 20 -120 1 -14 5
-43 8 -65 4 -22 9 -83 13 -135 3 -52 8 -115 10 -140 6 -58 5 -749 0 -775 -2
-11 -8 -19 -12 -19 -198 34 -714 38 -999 9 -22 -2 -71 -7 -110 -10 -38 -3 -86
-7 -105 -10 -19 -2 -57 -7 -85 -10 -108 -13 -233 -36 -303 -55 -40 -11 -89
-23 -110 -25 -20 -3 -54 -8 -74 -11 -50 -8 -259 -7 -328 1 -76 8 -94 12 -185
34 -70 17 -105 23 -215 37 -25 3 -161 11 -310 19 -112 6 -614 7 -631 1 -8 -3
-57 -7 -109 -11 -52 -3 -108 -8 -125 -10 -46 -6 -166 -24 -202 -31 -18 -3 -34
-2 -34 3 -7 41 -25 202 -34 298 -26 270 -26 693 -1 835 3 14 7 39 9 55 22 140
78 256 198 410 106 135 289 324 394 406 313 246 656 371 1110 405 50 3 91 8
93 9 5 5 477 -3 517 -8z m1311 -2460 c12 -3 39 -8 60 -11 144 -23 231 -83 255
-177 17 -67 18 -369 1 -449 -6 -30 -14 -69 -17 -86 -8 -52 -46 -166 -70 -214
-74 -145 -257 -234 -550 -266 -89 -9 -322 -10 -388 -1 -170 24 -332 104 -405
201 -157 209 -272 633 -208 768 33 69 119 122 271 166 126 37 224 53 410 68
39 3 71 7 73 9 6 5 546 -2 568 -8z m-2552 -31 c294 -13 524 -74 603 -159 48
-52 53 -76 49 -210 -6 -197 -83 -447 -185 -602 -69 -105 -246 -201 -426 -231
-62 -10 -386 -11 -480 -2 -206 22 -381 114 -447 234 -45 83 -86 225 -114 394
-13 78 -12 315 1 365 28 108 139 160 425 200 19 3 121 8 225 11 105 4 192 8
194 10 2 2 7 2 10 0 3 -2 68 -7 145 -10z m3154 -115 l-3 -46 -107 0 -108 -1 0
46 0 46 110 0 111 0 -3 -45z m-4228 -79 l0 -47 -110 -3 -110 -3 0 45 0 45 58
3 c31 2 81 4 110 5 l52 3 0 -48z"/>
</g>
</svg>
