<svg xmlns="http://www.w3.org/2000/svg" width="236" height="73.6263" viewBox="0 0 236 73.6263">
  <title>Asset 1</title>
  <g id="Layer_2" data-name="Layer 2">
    <g id="Michael">
      <path id="Glasses" d="M235.48369,9.45866c-7.18291-7.18291-79.012-14.36581-115.95264-3.07839H116.469C79.52828-4.90715,7.69922,2.27575.51631,9.45866c0,0-.0367,5.39144,0,8.209C.51976,17.931,2.56857,18.69382,3.5947,19.72c4.10452,4.10452.96237,55.18108,49.25422,53.35874,54.38486-2.05226,51.30647-45.1497,63.62-50.28035h3.0621c12.31356,5.13065,9.23517,48.22809,63.62,50.28035C231.44293,74.901,228.30078,23.82447,232.4053,19.72c1.02613-1.02613,3.07494-1.789,3.07839-2.05226C235.52039,14.8501,235.48369,9.45866,235.48369,9.45866ZM12.31661,14.58924H6.16c-.84657,0-2.56532-1.20569-2.56532-2.05226S5.31339,10.48473,6.16,10.48473h6.15665c.84657,0,2.56533,1.20569,2.56533,2.05225S13.16318,14.58924,12.31661,14.58924ZM53.87505,70.0003c-36.94067,0-41.04518-23.601-38.99293-50.28035,1.269-16.49711,70.0341-24.62617,86.19488-3.07838C110.31217,28.95512,94.92023,70.0003,53.87505,70.0003Zm128.2499,0c-41.04518,0-56.43712-41.04518-47.202-53.35873C151.08378-4.90622,219.84887,3.22284,221.11788,19.72,223.17013,46.39932,219.06562,70.0003,182.125,70.0003ZM229.84,14.58924h-6.15665c-.84657,0-2.56533-1.20569-2.56533-2.05226s1.71876-2.05225,2.56533-2.05225H229.84c.84657,0,2.56532,1.20569,2.56532,2.05225S230.68661,14.58924,229.84,14.58924Z" style="stroke: #000;stroke-miterlimit: 10"/>
    </g>
  </g>
</svg>
