<?xml version="1.0" encoding="UTF-8" standalone="no"?>
<!DOCTYPE svg PUBLIC "-//W3C//DTD SVG 1.1//EN" "http://www.w3.org/Graphics/SVG/1.1/DTD/svg11.dtd">
<svg width="100%" height="100%" viewBox="0 0 600 600" version="1.1" xmlns="http://www.w3.org/2000/svg" xmlns:xlink="http://www.w3.org/1999/xlink" xml:space="preserve" xmlns:serif="http://www.serif.com/" style="fill-rule:evenodd;clip-rule:evenodd;stroke-linejoin:round;stroke-miterlimit:2;">
    <g transform="matrix(1,0,0,1,31.5739,7.09044)">
        <g transform="matrix(7.60362,0,0,7.60362,-0.000761393,-0.00403465)">
            <path d="M1.834,58.458C1.834,58.458 -4.045,32.53 5.25,17.696C11.756,7.311 27.494,0.198 35.627,0.006C41.681,-0.137 48.024,2.582 52.7,6.246C55.17,8.177 57.329,10.658 57.886,13.629C58.638,17.635 58.23,18.919 58.23,18.919C58.23,18.919 60.566,15.954 65.664,17.779C73.199,20.481 69.394,56.779 69.528,57.852L65.46,57.852C65.46,57.852 66.734,37.599 63.78,32.708C58.73,24.344 51.207,18.929 35.627,18.818C21.314,18.714 13.407,23.183 6.086,33.521C1.997,39.294 5.249,58.458 5.249,58.458L1.834,58.458Z"/>
        </g>
        <g transform="matrix(7.60362,0,0,7.60362,-0.000761393,-0.00403465)">
            <path d="M39.657,56.584C42.493,55.44 48.792,54.969 54.031,54.676C64.628,54.078 70.605,56.18 70.605,56.18L70.546,61.517C70.546,61.517 69.154,62.535 68.145,63.835C66.735,65.646 66.975,71.037 63.515,73.946C60.22,76.716 48.445,77.55 44.218,74.864C41.893,73.384 40.025,69.697 38.962,65.95C38.732,65.472 38.52,64.984 38.329,64.489C37.929,63.388 37.655,62.753 35.555,62.753C33.455,62.753 33.201,63.74 32.765,64.683C32.57,65.105 32.254,65.781 31.912,66.505C30.995,70.057 29.379,73.478 27.265,74.972C23.175,77.86 11.372,77.602 7.947,74.996C4.349,72.259 4.326,66.863 2.83,65.121C1.76,63.872 0.318,62.925 0.318,62.925L0,57.595C0,57.595 5.868,55.205 16.481,55.284C21.915,55.324 28.493,55.499 31.226,56.6C33.982,57.05 36.792,57.036 39.656,56.584L39.657,56.584ZM30.819,60.406C29.479,57.903 22.664,57.268 18.666,57.294C14.666,57.321 6.819,57.367 5.751,60.19C4.683,63.014 5.996,71.869 8.46,73.742C11.47,76.032 14.278,76.016 17.23,76.135C20.182,76.255 23.929,76.03 27.053,73.696C29.859,71.599 32.126,62.844 30.819,60.406ZM39.959,60.486C41.175,57.924 47.952,56.956 51.947,56.789C55.942,56.622 63.783,56.285 64.987,59.052C66.191,61.819 65.311,70.727 62.941,72.722C60.046,75.155 57.241,75.273 54.298,75.537C51.356,75.801 47.602,75.757 44.368,73.58C41.463,71.624 38.773,62.987 39.959,60.487L39.959,60.486ZM1.069,59.822L4.46,59.658L4.529,61.063L1.139,61.229L1.069,59.822ZM69.645,58.457L66.25,58.457L66.25,59.865L69.645,59.865L69.645,58.457Z"/>
        </g>
    </g>
</svg>
